<svg xmlns="http://www.w3.org/2000/svg" viewBox="0 0 512 512" width="512" height="512">
<path d="M 58.55 370.00 A 228.00 228.00 0 0 1 303.40 32.98 L 295.92 68.20 A 192.00 192.00 0 0 0 89.72 352.00 A 18.00 18.00 0 0 1 58.55 370.00 Z" fill="#33BF40" stroke="none"/>
<path d="M 303.40 32.98 A 228.00 228.00 0 0 1 472.84 185.54 L 438.60 196.67 A 192.00 192.00 0 0 0 295.92 68.20 Z" fill="#F2C714" stroke="none"/>
<path d="M 472.84 185.54 A 228.00 228.00 0 0 1 453.45 370.00 A 18.00 18.00 0 0 1 422.28 352.00 A 192.00 192.00 0 0 0 438.60 196.67 Z" fill="#E63826" stroke="none"/>
<path d="M 363.38 14.82 L 226.13 288.67 L 251.71 300.06 Z" fill="#731F14" stroke="none"/>
<circle cx="256.00" cy="256.00" r="18.00" fill="#595959"/>
<circle cx="256.00" cy="256.00" r="8.00" fill="#A6A6A6"/>
</svg>